<svg width="22" height="22" viewBox="0 0 22 22" fill="none" xmlns="http://www.w3.org/2000/svg">
<path d="M2.05 12H0V10H2.05C2.5 5.83 5.83 2.5 10 2.05V0H12V2.05C16.17 2.5 19.5 5.83 19.95 10H22V12H19.95C19.5 16.17 16.17 19.5 12 19.95V22H10V19.95C5.83 19.5 2.5 16.17 2.05 12ZM11 4C9.14348 4 7.36301 4.7375 6.05025 6.05025C4.7375 7.36301 4 9.14348 4 11C4 12.8565 4.7375 14.637 6.05025 15.9497C7.36301 17.2625 9.14348 18 11 18C12.8565 18 14.637 17.2625 15.9497 15.9497C17.2625 14.637 18 12.8565 18 11C18 9.14348 17.2625 7.36301 15.9497 6.05025C14.637 4.7375 12.8565 4 11 4V4Z" fill="#E4E3DE"/>
</svg>
